<svg id="visual" viewBox="0 0 900 600" width="900" height="600" xmlns="http://www.w3.org/2000/svg" xmlns:xlink="http://www.w3.org/1999/xlink" version="1.1"><path d="M0 453L16.7 458.5C33.3 464 66.7 475 100 480.8C133.3 486.7 166.7 487.3 200 476.7C233.3 466 266.7 444 300 447.7C333.3 451.3 366.7 480.7 400 482.3C433.3 484 466.7 458 500 449.7C533.3 441.3 566.7 450.7 600 458.5C633.3 466.3 666.7 472.7 700 477.2C733.3 481.7 766.7 484.3 800 482C833.3 479.7 866.7 472.3 883.3 468.7L900 465L900 601L883.3 601C866.7 601 833.3 601 800 601C766.7 601 733.3 601 700 601C666.7 601 633.3 601 600 601C566.7 601 533.3 601 500 601C466.7 601 433.3 601 400 601C366.7 601 333.3 601 300 601C266.7 601 233.3 601 200 601C166.7 601 133.3 601 100 601C66.7 601 33.3 601 16.7 601L0 601Z" fill="#fedbe1" stroke-linecap="round" stroke-linejoin="miter"></path></svg>